<?xml version="1.0" encoding="utf-8"?>
<!-- Generator: Adobe Illustrator 24.3.0, SVG Export Plug-In . SVG Version: 6.00 Build 0)  -->
<svg version="1.1" id="Layer_1" xmlns="http://www.w3.org/2000/svg" xmlns:xlink="http://www.w3.org/1999/xlink" x="0px" y="0px"
	 viewBox="0 0 357.84 343.42" style="enable-background:new 0 0 357.84 343.42;" xml:space="preserve">
<style type="text/css">
	.st0{fill:#E0C527;}
</style>
<g>
	<path class="st0" d="M158.13,113.12c-13.46,0.01-26.91-0.04-40.37-0.02c-1.13,0-2.26,0.41-3.97,0.74c0,59.15,0,118.1,0,177.31
		c-20.58,0-40.51,0-60.61,0c-0.17-0.97-0.38-1.62-0.38-2.28c-0.07-17.44-0.19-34.88-0.13-52.32c0.02-5.67,1.46-6.74,7.35-6.66
		c8.97,0.13,17.93,0.19,26.9,0.36c4.89,0.09,7.23-1.91,7.15-7.06c-0.18-11.56-0.12-23.13-0.03-34.69c0.04-4.92-1.84-7.05-7.06-7.02
		c-26.07,0.17-52.13,0.12-78.2-0.02c-4.15-0.02-5.55,1.16-5.54,5.57c0.13,48.86,0.03,97.73-0.01,146.59c0,2.04,0,4.08,0,6.7
		c53.31,0,106.19,0,159.06,0c0.13-0.73,0.3-1.23,0.3-1.74c0.09-73.73,0.15-147.46,0.32-221.19
		C162.92,113.7,161.09,113.12,158.13,113.12z"/>
	<path class="st0" d="M197.34,3.7c0,75.4,0,150.52,0,225.97c15.85,0,31.48,0,48.01,0c0-59.01,0-117.77,0-177.71
		c19.17,0,37.44,0.12,55.71-0.09c4.03-0.05,5.53,1.07,5.5,5.15c-0.13,16.57,0.04,33.15-0.09,49.72c-0.05,5.87-1.18,6.63-7.27,6.57
		c-9.66-0.1-19.33-0.07-28.99-0.24c-3.85-0.07-5.09,1.69-5.05,5.34c0.15,12.26,0.02,24.52,0.19,36.77c0.08,5.87,1.41,6.9,7.13,6.87
		c25.38-0.16,50.76-0.28,76.14-0.42c1.83-0.01,3.66,0,5.99,0c0-53.13,0-105.49,0-157.92C302.03,3.7,249.94,3.7,197.34,3.7z"/>
	<path class="st0" d="M89.39,161.66c4.05,0.05,4.66-1.91,4.67-5.01c0.02-11.91,0.05-23.83,0.05-35.74c0-7.68-0.9-8.73-8.59-8.78
		c-9.32-0.06-18.65,0.12-27.97,0.29c-3.28,0.06-4.98-0.82-4.94-4.67c0.16-17.27,0.1-34.54-0.02-51.8c-0.02-3.13,1.03-4.27,4.17-4.25
		c17.95,0.1,35.89,0.05,53.84,0.1c0.96,0,1.93,0.4,3.39,0.72c0,13.25,0,26.31,0,40.3c14.64,0,28.73,0.03,42.81-0.02
		c4.51-0.01,6.05-2.25,6.02-6.87c-0.17-25.73-0.03-51.46-0.02-77.19c0-1.68-0.19-3.35-0.32-5.67c-53.08,0-105.84,0-158.87,0
		c0,52.61,0,105.03,0,157.51c1.2,0.17,2.05,0.39,2.89,0.39C34.12,161.19,61.76,161.3,89.39,161.66z"/>
	<path class="st0" d="M269.67,181.58c-3.5-0.01-4.37,1.7-4.36,4.82c0.02,12.6,0,25.21-0.2,37.81c-0.07,4.42,1.51,6.12,6.09,5.96
		c9.49-0.33,19-0.05,28.49-0.28c4.68-0.12,6.72,1.18,6.55,6.42c-0.35,10.69,0.06,21.41,0.11,32.11c0.04,7.21,0.01,14.43,0.01,22.29
		c-20.46,0-40.06,0-60.78,0c0-13.71,0-27.06,0-40.84c-14.4,0-27.68-0.02-40.97,0.01c-7.05,0.01-7.7,0.46-7.73,7.71
		c-0.1,25.38-0.03,50.75,0.01,76.13c0,1.67,0.26,3.33,0.44,5.41c52.58,0,104.65,0,157.25,0c0-52.46,0-104.7,0-157.01
		c-0.55-0.18-1.02-0.47-1.5-0.47C325.27,181.63,297.47,181.65,269.67,181.58z"/>
</g>
</svg>
