<?xml version="1.0" encoding="utf-8"?>
<!-- Generator: Adobe Illustrator 24.3.0, SVG Export Plug-In . SVG Version: 6.00 Build 0)  -->
<svg version="1.1" id="Layer_1" xmlns="http://www.w3.org/2000/svg" xmlns:xlink="http://www.w3.org/1999/xlink" x="0px" y="0px"
	 viewBox="0 0 1080 244.18" style="enable-background:new 0 0 1080 244.18;" xml:space="preserve">
<style type="text/css">
	.st0{fill:#E0C527;}
</style>
<g>
	<g>
		<path class="st0" d="M115.6,82.44c-9.11,0.01-18.21-0.03-27.32-0.01c-0.77,0-1.53,0.28-2.69,0.5c0,40.03,0,79.92,0,119.99
			c-13.93,0-27.42,0-41.01,0c-0.11-0.65-0.26-1.1-0.26-1.54c-0.05-11.8-0.13-23.6-0.09-35.4c0.01-3.84,0.99-4.56,4.97-4.5
			c6.07,0.09,12.13,0.13,18.2,0.25c3.31,0.06,4.9-1.3,4.84-4.78c-0.12-7.82-0.08-15.65-0.02-23.48c0.03-3.33-1.25-4.77-4.78-4.75
			c-17.64,0.11-35.28,0.08-52.92-0.01c-2.81-0.01-3.76,0.79-3.75,3.77c0.09,33.07,0.02,66.13-0.01,99.2c0,1.38,0,2.76,0,4.53
			c36.08,0,71.86,0,107.64,0c0.09-0.49,0.2-0.84,0.2-1.18c0.06-49.89,0.1-99.78,0.21-149.68C118.84,82.83,117.6,82.44,115.6,82.44z"
			/>
		<path class="st0" d="M142.13,8.4c0,51.02,0,101.86,0,152.91c10.73,0,21.3,0,32.49,0c0-39.94,0-79.7,0-120.25
			c12.97,0,25.34,0.08,37.7-0.06c2.73-0.03,3.74,0.72,3.72,3.48c-0.09,11.21,0.03,22.43-0.06,33.64c-0.03,3.97-0.8,4.48-4.92,4.44
			c-6.54-0.06-13.08-0.04-19.61-0.16c-2.61-0.05-3.44,1.14-3.41,3.62c0.1,8.29,0.01,16.59,0.13,24.88c0.06,3.97,0.95,4.67,4.83,4.65
			c17.17-0.11,34.35-0.19,51.52-0.28c1.24-0.01,2.47,0,4.05,0c0-35.95,0-71.39,0-106.86C212.98,8.4,177.72,8.4,142.13,8.4z"/>
		<path class="st0" d="M69.08,115.29c2.74,0.04,3.16-1.3,3.16-3.39c0.02-8.06,0.03-16.13,0.03-24.19c0-5.2-0.61-5.9-5.81-5.94
			c-6.31-0.04-12.62,0.08-18.93,0.19c-2.22,0.04-3.37-0.55-3.34-3.16c0.11-11.68,0.07-23.37-0.02-35.06
			c-0.02-2.12,0.7-2.89,2.82-2.87c12.14,0.07,24.29,0.04,36.43,0.07c0.65,0,1.3,0.27,2.29,0.48c0,8.96,0,17.81,0,27.27
			c9.91,0,19.44,0.02,28.97-0.01c3.05-0.01,4.09-1.52,4.07-4.65c-0.12-17.41-0.02-34.82-0.01-52.23c0-1.13-0.13-2.27-0.22-3.83
			c-35.92,0-71.62,0-107.51,0c0,35.6,0,71.07,0,106.59c0.81,0.11,1.38,0.26,1.96,0.27C31.68,114.97,50.38,115.04,69.08,115.29z"/>
		<path class="st0" d="M191.08,128.77c-2.37-0.01-2.96,1.15-2.95,3.26c0.02,8.53,0,17.06-0.14,25.59c-0.05,2.99,1.02,4.14,4.12,4.04
			c6.42-0.22,12.85-0.03,19.28-0.19c3.17-0.08,4.55,0.8,4.43,4.34c-0.24,7.23,0.04,14.49,0.08,21.73c0.03,4.88,0,9.76,0,15.08
			c-13.85,0-27.11,0-41.13,0c0-9.27,0-18.31,0-27.64c-9.74,0-18.73-0.01-27.72,0c-4.77,0.01-5.21,0.31-5.23,5.22
			c-0.07,17.17-0.02,34.35,0.01,51.52c0,1.13,0.18,2.26,0.3,3.66c35.58,0,70.82,0,106.41,0c0-35.5,0-70.85,0-106.25
			c-0.37-0.12-0.69-0.32-1.01-0.32C228.7,128.8,209.89,128.82,191.08,128.77z"/>
	</g>
	<g>
		<g>
			<path class="st0" d="M310.62,179.01h7.74v5.67c-1.86,1.38-4.46,2.29-7.31,2.29c-6.19,0-10.3-4.59-10.3-10.82v-0.09
				c0-5.8,4.24-10.69,9.82-10.69c3.85,0,6.14,1.25,8.48,3.24l3.37-4.02c-3.12-2.64-6.36-4.11-11.64-4.11
				c-9.13,0-15.62,7.18-15.62,15.66v0.09c0,8.83,6.23,15.58,15.71,15.58c5.36,0,9.65-2.16,12.63-4.72v-12.72h-12.89V179.01z"/>
			<path class="st0" d="M339.74,167.98c-6.53,0-11.16,5.36-11.16,11.9v0.09c0,7.05,5.1,11.85,11.72,11.85c4.2,0,7.18-1.69,9.35-4.28
				l-3.07-2.73c-1.82,1.77-3.63,2.73-6.19,2.73c-3.37,0-6.01-2.08-6.58-5.8h16.79c0.04-0.52,0.09-1,0.09-1.47
				C350.68,173.69,347,167.98,339.74,167.98z M333.77,178.27c0.48-3.55,2.73-6.01,5.93-6.01c3.46,0,5.45,2.64,5.8,6.01H333.77z"/>
			<path class="st0" d="M368.34,167.98c-3.55,0-5.67,1.86-7.14,3.98v-3.5h-5.23v22.84h5.23V178.4c0-3.55,2.12-5.67,5.15-5.67
				c3.11,0,4.89,2.03,4.89,5.58v12.98h5.23v-14.58C376.47,171.44,373.48,167.98,368.34,167.98z"/>
			<path class="st0" d="M392.69,167.98c-6.53,0-11.16,5.36-11.16,11.9v0.09c0,7.05,5.1,11.85,11.72,11.85c4.2,0,7.18-1.69,9.35-4.28
				l-3.07-2.73c-1.82,1.77-3.63,2.73-6.19,2.73c-3.37,0-6.01-2.08-6.58-5.8h16.79c0.04-0.52,0.09-1,0.09-1.47
				C403.64,173.69,399.96,167.98,392.69,167.98z M386.72,178.27c0.48-3.55,2.73-6.01,5.93-6.01c3.46,0,5.45,2.64,5.8,6.01H386.72z"
				/>
			<path class="st0" d="M414.16,173.6v-5.15h-5.23v22.84h5.23v-8.7c0-6.06,3.2-9.04,7.79-9.04h0.3v-5.54
				C418.22,167.85,415.58,170.18,414.16,173.6z"/>
			<path class="st0" d="M434.79,168.15c-3.63,0-6.1,0.74-8.61,1.86l1.38,4.11c2.08-0.87,3.98-1.43,6.53-1.43
				c3.68,0,5.67,1.73,5.67,4.98v0.56c-1.77-0.56-3.59-0.95-6.14-0.95c-5.58,0-9.43,2.42-9.43,7.35v0.09c0,4.59,3.81,7.05,8.09,7.05
				c3.5,0,5.88-1.47,7.44-3.33v2.86h5.11v-13.54c0-2.99-0.78-5.41-2.47-7.05C440.76,169.06,438.21,168.15,434.79,168.15z
				 M439.86,183.07c0,2.9-2.64,4.89-6.1,4.89c-2.51,0-4.46-1.26-4.46-3.46v-0.09c0-2.38,1.99-3.81,5.36-3.81
				c2.08,0,3.85,0.39,5.19,0.91V183.07z"/>
			<path class="st0" d="M457.21,162.18h-5.23v6.27h-2.9v4.5h2.9v12.03c0,5.02,2.73,6.71,6.58,6.71c1.99,0,3.42-0.43,4.72-1.17v-4.28
				c-1.04,0.52-2.08,0.78-3.24,0.78c-1.77,0-2.81-0.82-2.81-2.86v-11.21h6.14v-4.5h-6.14V162.18z"/>
			<rect x="468.98" y="168.45" class="st0" width="5.23" height="22.84"/>
			<rect x="468.76" y="159.97" class="st0" width="5.62" height="4.97"/>
			<path class="st0" d="M491.99,167.98c-7.01,0-12.2,5.41-12.2,11.94V180c0,6.49,5.15,11.81,12.11,11.81
				c7.05,0,12.24-5.41,12.24-11.9v-0.09C504.15,173.3,499,167.98,491.99,167.98z M498.92,180c0,3.94-2.68,7.22-6.92,7.22
				c-4.07,0-6.97-3.33-6.97-7.31v-0.09c0-3.98,2.68-7.27,6.88-7.27c4.11,0,7.01,3.33,7.01,7.36V180z"/>
			<path class="st0" d="M521.85,167.98c-3.55,0-5.67,1.86-7.14,3.98v-3.5h-5.23v22.84h5.23V178.4c0-3.55,2.12-5.67,5.15-5.67
				c3.11,0,4.89,2.03,4.89,5.58v12.98h5.23v-14.58C529.98,171.44,527,167.98,521.85,167.98z"/>
			<path class="st0" d="M545.39,168.15c-3.63,0-6.1,0.74-8.61,1.86l1.38,4.11c2.08-0.87,3.98-1.43,6.53-1.43
				c3.68,0,5.67,1.73,5.67,4.98v0.56c-1.77-0.56-3.59-0.95-6.14-0.95c-5.58,0-9.43,2.42-9.43,7.35v0.09c0,4.59,3.81,7.05,8.09,7.05
				c3.5,0,5.88-1.47,7.44-3.33v2.86h5.11v-13.54c0-2.99-0.78-5.41-2.47-7.05C551.36,169.06,548.8,168.15,545.39,168.15z
				 M550.45,183.07c0,2.9-2.64,4.89-6.1,4.89c-2.51,0-4.46-1.26-4.46-3.46v-0.09c0-2.38,1.99-3.81,5.36-3.81
				c2.08,0,3.85,0.39,5.19,0.91V183.07z"/>
			<rect x="562" y="159.71" class="st0" width="5.23" height="31.58"/>
			<polygon class="st0" points="617.68,183.46 610.24,160.92 605.74,160.92 598.3,183.46 591.08,161.01 585.32,161.01 
				595.88,191.51 600.46,191.51 607.9,169.75 615.35,191.51 619.98,191.51 630.49,161.01 624.91,161.01 			"/>
			<path class="st0" d="M642.43,167.98c-6.53,0-11.16,5.36-11.16,11.9v0.09c0,7.05,5.11,11.85,11.72,11.85
				c4.2,0,7.18-1.69,9.34-4.28l-3.07-2.73c-1.82,1.77-3.63,2.73-6.19,2.73c-3.37,0-6.01-2.08-6.58-5.8h16.79
				c0.04-0.52,0.09-1,0.09-1.47C653.38,173.69,649.7,167.98,642.43,167.98z M636.46,178.27c0.48-3.55,2.73-6.01,5.93-6.01
				c3.46,0,5.45,2.64,5.8,6.01H636.46z"/>
			<path class="st0" d="M667.75,168.15c-3.63,0-6.1,0.74-8.61,1.86l1.38,4.11c2.08-0.87,3.98-1.43,6.53-1.43
				c3.68,0,5.67,1.73,5.67,4.98v0.56c-1.77-0.56-3.59-0.95-6.14-0.95c-5.58,0-9.43,2.42-9.43,7.35v0.09c0,4.59,3.81,7.05,8.09,7.05
				c3.5,0,5.88-1.47,7.44-3.33v2.86h5.1v-13.54c0-2.99-0.78-5.41-2.47-7.05C673.72,169.06,671.16,168.15,667.75,168.15z
				 M672.81,183.07c0,2.9-2.64,4.89-6.1,4.89c-2.51,0-4.46-1.26-4.46-3.46v-0.09c0-2.38,1.99-3.81,5.36-3.81
				c2.08,0,3.85,0.39,5.19,0.91V183.07z"/>
			<rect x="684.36" y="159.71" class="st0" width="5.23" height="31.58"/>
			<path class="st0" d="M702.75,162.18h-5.23v6.27h-2.9v4.5h2.9v12.03c0,5.02,2.73,6.71,6.58,6.71c1.99,0,3.42-0.43,4.72-1.17v-4.28
				c-1.04,0.52-2.08,0.78-3.25,0.78c-1.77,0-2.81-0.82-2.81-2.86v-11.21h6.14v-4.5h-6.14V162.18z"/>
			<path class="st0" d="M726.59,167.98c-3.55,0-5.67,1.86-7.14,3.98v-12.24h-5.23v31.58h5.23V178.4c0-3.55,2.12-5.67,5.15-5.67
				c3.11,0,4.89,2.03,4.89,5.58v12.98h5.23v-14.58C734.72,171.44,731.74,167.98,726.59,167.98z"/>
			<polygon class="st0" points="759.95,178.4 775.13,178.4 775.13,173.64 759.95,173.64 759.95,165.77 777.08,165.77 777.08,161.01 
				754.63,161.01 754.63,191.29 777.29,191.29 777.29,186.54 759.95,186.54 			"/>
			<path class="st0" d="M809.75,167.98c-3.46,0-5.88,1.6-7.7,4.02c-1.21-2.42-3.55-4.02-6.84-4.02c-3.5,0-5.49,1.9-6.96,3.94v-3.46
				h-5.23v22.84h5.23V178.4c0-3.5,1.99-5.67,4.89-5.67c2.9,0,4.63,1.99,4.63,5.54v13.02H803V178.4c0-3.68,2.03-5.67,4.89-5.67
				c2.94,0,4.63,1.95,4.63,5.58v12.98h5.23v-14.58C817.75,171.13,814.72,167.98,809.75,167.98z"/>
			<path class="st0" d="M837.14,167.98c-3.72,0-6.1,1.9-7.79,4.28v-3.81h-5.23v29.76h5.23v-10.47c1.6,2.12,3.98,4.02,7.79,4.02
				c5.41,0,10.6-4.28,10.6-11.85v-0.09C847.74,172.22,842.5,167.98,837.14,167.98z M842.41,179.92c0,4.5-2.94,7.31-6.53,7.31
				c-3.55,0-6.66-2.94-6.66-7.31v-0.09c0-4.37,3.12-7.31,6.66-7.31c3.55,0,6.53,2.9,6.53,7.31V179.92z"/>
			<path class="st0" d="M864.09,167.98c-7.01,0-12.2,5.41-12.2,11.94V180c0,6.49,5.15,11.81,12.11,11.81
				c7.05,0,12.24-5.41,12.24-11.9v-0.09C876.25,173.3,871.1,167.98,864.09,167.98z M871.01,180c0,3.94-2.68,7.22-6.92,7.22
				c-4.07,0-6.97-3.33-6.97-7.31v-0.09c0-3.98,2.68-7.27,6.88-7.27c4.11,0,7.01,3.33,7.01,7.36V180z"/>
			<polygon class="st0" points="903.16,184.11 898.1,168.37 893.6,168.37 888.54,184.11 883.95,168.45 878.59,168.45 885.98,191.47 
				890.66,191.47 895.81,175.85 900.91,191.47 905.63,191.47 913.11,168.45 907.83,168.45 			"/>
			<path class="st0" d="M926.57,167.98c-6.53,0-11.16,5.36-11.16,11.9v0.09c0,7.05,5.11,11.85,11.72,11.85
				c4.2,0,7.18-1.69,9.34-4.28l-3.07-2.73c-1.82,1.77-3.63,2.73-6.19,2.73c-3.37,0-6.01-2.08-6.58-5.8h16.79
				c0.04-0.52,0.09-1,0.09-1.47C937.52,173.69,933.84,167.98,926.57,167.98z M920.6,178.27c0.48-3.55,2.73-6.01,5.93-6.01
				c3.46,0,5.45,2.64,5.8,6.01H920.6z"/>
			<path class="st0" d="M948.03,173.6v-5.15h-5.23v22.84h5.23v-8.7c0-6.06,3.2-9.04,7.79-9.04h0.3v-5.54
				C952.1,167.85,949.46,170.18,948.03,173.6z"/>
			<path class="st0" d="M987.4,167.98c-3.46,0-5.88,1.6-7.7,4.02c-1.21-2.42-3.55-4.02-6.84-4.02c-3.5,0-5.49,1.9-6.96,3.94v-3.46
				h-5.23v22.84h5.23V178.4c0-3.5,1.99-5.67,4.89-5.67c2.9,0,4.63,1.99,4.63,5.54v13.02h5.23V178.4c0-3.68,2.03-5.67,4.89-5.67
				c2.94,0,4.63,1.95,4.63,5.58v12.98h5.23v-14.58C995.41,171.13,992.38,167.98,987.4,167.98z"/>
			<path class="st0" d="M1011.68,167.98c-6.53,0-11.16,5.36-11.16,11.9v0.09c0,7.05,5.11,11.85,11.72,11.85
				c4.2,0,7.18-1.69,9.34-4.28l-3.07-2.73c-1.82,1.77-3.63,2.73-6.19,2.73c-3.37,0-6.01-2.08-6.58-5.8h16.79
				c0.04-0.52,0.09-1,0.09-1.47C1022.62,173.69,1018.94,167.98,1011.68,167.98z M1005.71,178.27c0.48-3.55,2.73-6.01,5.93-6.01
				c3.46,0,5.45,2.64,5.8,6.01H1005.71z"/>
			<path class="st0" d="M1040.28,167.98c-3.55,0-5.67,1.86-7.14,3.98v-3.5h-5.23v22.84h5.23V178.4c0-3.55,2.12-5.67,5.15-5.67
				c3.11,0,4.89,2.03,4.89,5.58v12.98h5.23v-14.58C1048.41,171.44,1045.42,167.98,1040.28,167.98z"/>
			<path class="st0" d="M1067.19,172.95v-4.5h-6.14v-6.27h-5.23v6.27h-2.9v4.5h2.9v12.03c0,5.02,2.73,6.71,6.58,6.71
				c1.99,0,3.42-0.43,4.72-1.17v-4.28c-1.04,0.52-2.08,0.78-3.25,0.78c-1.77,0-2.81-0.82-2.81-2.86v-11.21H1067.19z"/>
		</g>
		<g>
			<polygon class="st0" points="354.61,47.4 330.93,84.36 307.6,47.4 290.14,47.4 323.39,98.12 323.39,131.13 338.23,131.13 
				338.23,97.76 371.48,47.4 			"/>
			<path class="st0" d="M400.91,46.8l-36.84,84.33h15.07l8.61-20.22h39.59l8.49,20.22h15.55L414.55,46.8H400.91z M393.13,97.88
				l14.35-33.49l14.47,33.49H393.13z"/>
			<path class="st0" d="M534.16,74.07v-0.24c0-7.3-2.51-13.52-6.94-18.06c-5.38-5.26-13.64-8.37-24.16-8.37h-37.32v83.73h14.71
				v-29.19h18.42l20.57,29.19h17.46l-22.61-31.7C525.91,96.08,534.16,87.83,534.16,74.07z M480.46,88.91V60.79h21.41
				c10.89,0,17.34,4.9,17.34,13.88v0.24c0,8.49-6.7,14-17.23,14H480.46z"/>
			<path class="st0" d="M592.42,45.96c-25.72,0-43.9,19.74-43.9,43.3v0.24c0,23.56,17.94,43.06,43.66,43.06s43.9-19.74,43.9-43.3
				v-0.24C636.08,65.46,618.14,45.96,592.42,45.96z M620.65,89.5c0,16.27-11.6,29.43-28.23,29.43s-28.47-13.4-28.47-29.66v-0.24
				c0-16.27,11.6-29.55,28.23-29.55S620.65,73,620.65,89.26V89.5z"/>
			<polygon class="st0" points="712.4,105.29 667.54,47.4 653.91,47.4 653.91,131.13 668.38,131.13 668.38,71.56 714.55,131.13 
				726.87,131.13 726.87,47.4 712.4,47.4 			"/>
			<path class="st0" d="M778.07,46.8l-36.84,84.33h15.07l8.61-20.22h39.59l8.49,20.22h15.55L791.71,46.8H778.07z M770.29,97.88
				l14.35-33.49l14.47,33.49H770.29z"/>
			<rect x="834.05" y="87.35" class="st0" width="35.41" height="14.23"/>
			<path class="st0" d="M926.28,118.93c-16.03,0-27.63-13.28-27.63-29.66v-0.24c0-16.39,11.72-29.55,27.63-29.55
				c9.57,0,16.75,4.19,23.45,10.41L959.17,59c-8.01-7.66-17.34-13.04-32.78-13.04c-25.36,0-43.18,19.5-43.18,43.3v0.24
				c0,24.04,18.18,43.06,42.58,43.06c15.67,0,25.24-5.74,33.97-14.83l-9.45-9.57C943.14,114.86,936.57,118.93,926.28,118.93z"/>
			<polygon class="st0" points="975.2,131.13 989.92,131.13 989.92,97.04 1032.14,97.04 1032.14,83.64 989.92,83.64 989.92,60.79 
				1037.52,60.79 1037.52,47.4 975.2,47.4 			"/>
			<rect x="1054.51" y="47.4" class="st0" width="14.71" height="83.73"/>
		</g>
	</g>
</g>
</svg>
